<svg width="20" height="20" viewBox="0 0 20 20" fill="none" xmlns="http://www.w3.org/2000/svg">
<path fill-rule="evenodd" clip-rule="evenodd" d="M0.878029 0.0111097L0.776581 0.000499955C0.407399 -0.0129962 0.0758636 0.248083 0.0111097 0.622217L0.000499955 0.723664C-0.0129962 1.09285 0.248083 1.42438 0.622217 1.48914L2.13122 1.75012L3.04575 12.6459L3.06468 12.8096C3.24868 14.0521 4.31732 14.9861 5.59012 14.9861H16.5021L16.6665 14.9809C17.8628 14.9045 18.8547 13.9998 19.0293 12.7979L19.9784 6.23954L19.9948 6.08889C20.0821 4.88982 19.1322 3.84912 17.9091 3.84912H3.81222L3.57749 1.04739L3.5598 0.936536C3.49136 0.648215 3.25698 0.422851 2.95803 0.37111L0.878029 0.0111097ZM5.47418 13.4798C4.97892 13.4256 4.58283 13.0279 4.54053 12.5208L3.93822 5.34912H17.9091L17.9973 5.35561C18.313 5.40255 18.5411 5.69782 18.4938 6.02477L17.5449 12.5827L17.521 12.7C17.4007 13.1585 16.9853 13.4861 16.5021 13.4861H5.59012L5.47418 13.4798ZM3.90852 18.0854C3.90852 17.2493 4.5862 16.5704 5.42252 16.5704C6.25874 16.5704 6.93752 17.2492 6.93752 18.0854C6.93752 18.9217 6.25862 19.5994 5.42252 19.5994C4.58631 19.5994 3.90852 18.9216 3.90852 18.0854ZM15.1599 18.0854C15.1599 17.2492 15.8387 16.5704 16.6749 16.5704C17.5111 16.5704 18.1899 17.2492 18.1899 18.0854C18.1899 18.9217 17.511 19.5994 16.6749 19.5994C15.8388 19.5994 15.1599 18.9217 15.1599 18.0854ZM15.6486 8.29512C15.6486 7.88091 15.3128 7.54512 14.8986 7.54512H12.1256L12.0239 7.55197C11.6578 7.60163 11.3756 7.91543 11.3756 8.29512C11.3756 8.70934 11.7114 9.04512 12.1256 9.04512H14.8986L15.0004 9.03828C15.3665 8.98861 15.6486 8.67482 15.6486 8.29512Z" fill="currentColor"/>
</svg>
