<svg width="95" height="42" viewBox="0 0 95 42" fill="none" xmlns="http://www.w3.org/2000/svg">
<path d="M3.2198 39.7549C2.61108 39.7549 2.06243 39.6202 1.57386 39.351C1.08528 39.0738 0.700827 38.6937 0.420496 38.2106C0.140165 37.7275 0 37.1811 0 36.5713C0 35.9615 0.140165 35.415 0.420496 34.932C0.700827 34.4489 1.08528 34.0727 1.57386 33.8035C2.06243 33.5342 2.61108 33.3996 3.2198 33.3996C3.82852 33.3996 4.37716 33.5342 4.86574 33.8035C5.35432 34.0727 5.73477 34.4489 6.00709 34.932C6.28742 35.415 6.42758 35.9615 6.42758 36.5713C6.42758 37.1811 6.28742 37.7275 6.00709 38.2106C5.73477 38.6937 5.35432 39.0738 4.86574 39.351C4.37716 39.6202 3.82852 39.7549 3.2198 39.7549ZM3.2198 39.0065C3.66833 39.0065 4.0688 38.9075 4.42122 38.7095C4.78164 38.5036 5.06197 38.2145 5.26221 37.8423C5.46244 37.4701 5.56256 37.0464 5.56256 36.5713C5.56256 36.0961 5.46244 35.6724 5.26221 35.3002C5.06197 34.928 4.78164 34.6429 4.42122 34.4449C4.0688 34.239 3.66833 34.1361 3.2198 34.1361C2.77127 34.1361 2.36679 34.239 2.00637 34.4449C1.65395 34.6429 1.37362 34.928 1.16537 35.3002C0.965139 35.6724 0.86502 36.0961 0.86502 36.5713C0.86502 37.0464 0.965139 37.4701 1.16537 37.8423C1.37362 38.2145 1.65395 38.5036 2.00637 38.7095C2.36679 38.9075 2.77127 39.0065 3.2198 39.0065Z" fill="#000C22"/>
<path d="M8.25064 33.4471H9.10364V36.2149H13.0803V33.4471H13.9333V39.6955H13.0803V36.9395H9.10364V39.6955H8.25064V33.4471Z" fill="#000C22"/>
<path d="M21.524 33.4471V39.6955H20.6709V34.1955H17.6434L17.5593 35.7397C17.4952 37.0385 17.343 38.0364 17.1027 38.7333C16.8625 39.4302 16.4339 39.7786 15.8172 39.7786C15.649 39.7786 15.4448 39.7469 15.2045 39.6836L15.2646 38.959C15.4087 38.9906 15.5089 39.0065 15.5649 39.0065C15.8933 39.0065 16.1416 38.856 16.3098 38.5551C16.478 38.2541 16.5901 37.8819 16.6462 37.4384C16.7023 36.995 16.7503 36.4089 16.7904 35.6803L16.8985 33.4471H21.524Z" fill="#000C22"/>
<path d="M26.1234 33.3996C26.9484 33.3996 27.5811 33.6055 28.0216 34.0173C28.4622 34.4212 28.6824 35.023 28.6824 35.8229V39.6955H27.8655V38.7214C27.6732 39.0461 27.3889 39.2995 27.0125 39.4816C26.644 39.6638 26.2035 39.7549 25.6909 39.7549C24.9861 39.7549 24.4254 39.5886 24.0089 39.2559C23.5924 38.9233 23.3842 38.4838 23.3842 37.9374C23.3842 37.4068 23.5764 36.9791 23.9609 36.6544C24.3533 36.3297 24.9741 36.1674 25.8231 36.1674H27.8294V35.7873C27.8294 35.2487 27.6772 34.8409 27.3729 34.5637C27.0685 34.2786 26.624 34.1361 26.0393 34.1361C25.6388 34.1361 25.2544 34.2034 24.886 34.338C24.5175 34.4647 24.2011 34.6429 23.9368 34.8726L23.5524 34.243C23.8728 33.9737 24.2572 33.7678 24.7057 33.6253C25.1543 33.4748 25.6268 33.3996 26.1234 33.3996ZM25.8231 39.0896C26.3036 39.0896 26.7161 38.9827 27.0605 38.7689C27.4049 38.5472 27.6612 38.2304 27.8294 37.8186V36.797H25.8471C24.7658 36.797 24.2252 37.1692 24.2252 37.9136C24.2252 38.2779 24.3653 38.567 24.6457 38.7808C24.926 38.9867 25.3185 39.0896 25.8231 39.0896Z" fill="#000C22"/>
<path d="M30.9532 33.4471H31.8062V38.4125L36.0232 33.4471H36.7801V39.6955H35.9271V34.73L31.7221 39.6955H30.9532V33.4471ZM33.8246 32.5443C33.2799 32.5443 32.8474 32.4096 32.5271 32.1404C32.2067 31.8711 32.0425 31.491 32.0345 31H32.6472C32.6552 31.3089 32.7673 31.5583 32.9836 31.7484C33.1998 31.9305 33.4802 32.0216 33.8246 32.0216C34.169 32.0216 34.4493 31.9305 34.6656 31.7484C34.8898 31.5583 35.006 31.3089 35.014 31H35.6267C35.6187 31.491 35.4505 31.8711 35.1221 32.1404C34.8017 32.4096 34.3692 32.5443 33.8246 32.5443Z" fill="#000C22"/>
<path d="M39.2247 33.4471H40.0777V36.2149H44.0544V33.4471H44.9074V39.6955H44.0544V36.9395H40.0777V39.6955H39.2247V33.4471Z" fill="#000C22"/>
<path d="M46.8393 36.108H49.987V36.8445H46.8393V36.108Z" fill="#000C22"/>
<path d="M58.9837 33.4471V39.6955H58.2028V34.7538L55.6437 38.9352H55.2593L52.7003 34.7419V39.6955H51.9193V33.4471H52.7844L55.4635 37.9492L58.1907 33.4471H58.9837Z" fill="#000C22"/>
<path d="M63.5856 33.3996C64.4105 33.3996 65.0433 33.6055 65.4838 34.0173C65.9243 34.4212 66.1446 35.023 66.1446 35.8229V39.6955H65.3276V38.7214C65.1354 39.0461 64.8511 39.2995 64.4746 39.4816C64.1062 39.6638 63.6657 39.7549 63.1531 39.7549C62.4482 39.7549 61.8876 39.5886 61.4711 39.2559C61.0546 38.9233 60.8463 38.4838 60.8463 37.9374C60.8463 37.4068 61.0386 36.9791 61.423 36.6544C61.8155 36.3297 62.4362 36.1674 63.2852 36.1674H65.2916V35.7873C65.2916 35.2487 65.1394 34.8409 64.835 34.5637C64.5307 34.2786 64.0862 34.1361 63.5015 34.1361C63.101 34.1361 62.7165 34.2034 62.3481 34.338C61.9797 34.4647 61.6633 34.6429 61.399 34.8726L61.0145 34.243C61.3349 33.9737 61.7194 33.7678 62.1679 33.6253C62.6164 33.4748 63.089 33.3996 63.5856 33.3996ZM63.2852 39.0896C63.7658 39.0896 64.1783 38.9827 64.5227 38.7689C64.8671 38.5472 65.1234 38.2304 65.2916 37.8186V36.797H63.3092C62.228 36.797 61.6873 37.1692 61.6873 37.9136C61.6873 38.2779 61.8275 38.567 62.1078 38.7808C62.3882 38.9867 62.7806 39.0896 63.2852 39.0896Z" fill="#000C22"/>
<path d="M71.6712 33.3996C72.2639 33.3996 72.8005 33.5342 73.2811 33.8035C73.7617 34.0648 74.1381 34.437 74.4104 34.9201C74.6828 35.4032 74.8189 35.9536 74.8189 36.5713C74.8189 37.1969 74.6828 37.7513 74.4104 38.2343C74.1381 38.7174 73.7617 39.0936 73.2811 39.3629C72.8085 39.6242 72.2719 39.7549 71.6712 39.7549C71.1586 39.7549 70.694 39.6519 70.2776 39.446C69.8691 39.2322 69.5327 38.9233 69.2684 38.5194V42H68.4154V33.4471H69.2323V34.6825C69.4886 34.2707 69.825 33.9539 70.2415 33.7322C70.666 33.5104 71.1426 33.3996 71.6712 33.3996ZM71.6111 39.0065C72.0517 39.0065 72.4521 38.9075 72.8125 38.7095C73.173 38.5036 73.4533 38.2145 73.6535 37.8423C73.8618 37.4701 73.9659 37.0464 73.9659 36.5713C73.9659 36.0961 73.8618 35.6764 73.6535 35.3121C73.4533 34.9399 73.173 34.6508 72.8125 34.4449C72.4521 34.239 72.0517 34.1361 71.6111 34.1361C71.1626 34.1361 70.7581 34.239 70.3977 34.4449C70.0453 34.6508 69.765 34.9399 69.5567 35.3121C69.3565 35.6764 69.2564 36.0961 69.2564 36.5713C69.2564 37.0464 69.3565 37.4701 69.5567 37.8423C69.765 38.2145 70.0453 38.5036 70.3977 38.7095C70.7581 38.9075 71.1626 39.0065 71.6111 39.0065Z" fill="#000C22"/>
<path d="M78.9463 36.9158H77.5046V39.6955H76.6516V33.4471H77.5046V36.1911H78.9584L81.181 33.4471H82.1061L79.6191 36.4762L82.2863 39.6955H81.2771L78.9463 36.9158Z" fill="#000C22"/>
<path d="M88.9361 36.8326H83.6499C83.6979 37.482 83.9502 38.0086 84.4068 38.4125C84.8633 38.8085 85.44 39.0065 86.1368 39.0065C86.5293 39.0065 86.8897 38.9392 87.2181 38.8045C87.5465 38.662 87.8308 38.4561 88.0711 38.1868L88.5517 38.7333C88.2713 39.0659 87.9189 39.3193 87.4944 39.4935C87.0779 39.6677 86.6174 39.7549 86.1128 39.7549C85.464 39.7549 84.8874 39.6202 84.3828 39.351C83.8862 39.0738 83.4977 38.6937 83.2174 38.2106C82.937 37.7275 82.7969 37.1811 82.7969 36.5713C82.7969 35.9615 82.929 35.415 83.1934 34.932C83.4657 34.4489 83.8341 34.0727 84.2987 33.8035C84.7712 33.5342 85.2998 33.3996 85.8845 33.3996C86.4692 33.3996 86.9938 33.5342 87.4584 33.8035C87.9229 34.0727 88.2874 34.4489 88.5517 34.932C88.816 35.4071 88.9481 35.9536 88.9481 36.5713L88.9361 36.8326ZM85.8845 34.1242C85.2758 34.1242 84.7632 34.3182 84.3467 34.7063C83.9382 35.0864 83.706 35.5853 83.6499 36.203H88.1312C88.0751 35.5853 87.8388 35.0864 87.4223 34.7063C87.0139 34.3182 86.5013 34.1242 85.8845 34.1242Z" fill="#000C22"/>
<path d="M95 34.1955H92.6092V39.6955H91.7562V34.1955H89.3654V33.4471H95V34.1955Z" fill="#000C22"/>
<path d="M12.0785 26C8.26035 26 5.28662 24.9683 3.15729 22.9048C1.05243 20.8413 0 17.916 0 14.1289V0H7.2691V13.9104C7.2691 17.9888 8.8967 20.028 12.1519 20.028C15.3826 20.028 16.998 17.9888 16.998 13.9104V0H24.1569V14.1289C24.1569 17.916 23.0923 20.8413 20.9629 22.9048C18.8581 24.9683 15.8966 26 12.0785 26Z" fill="#0349EB"/>
<path d="M54.6333 0V25.4902H48.6491L37.3049 11.9076V25.4902H30.1827V0H36.1668L47.511 13.5826V0H54.6333Z" fill="#0349EB"/>
<path d="M60.8621 0H68.1312V25.4902H60.8621V0Z" fill="#0349EB"/>
<path d="M79.8744 5.71709H71.9812V0H95V5.71709H87.1435V25.4902H79.8744V5.71709Z" fill="#0349EB"/>
</svg>
